<?xml version="1.0" encoding="UTF-8" standalone="no"?>
<svg
   xmlns:dc="http://purl.org/dc/elements/1.1/"
   xmlns:cc="http://creativecommons.org/ns#"
   xmlns:rdf="http://www.w3.org/1999/02/22-rdf-syntax-ns#"
   xmlns:svg="http://www.w3.org/2000/svg"
   xmlns="http://www.w3.org/2000/svg"
   xmlns:sodipodi="http://sodipodi.sourceforge.net/DTD/sodipodi-0.dtd"
   xmlns:inkscape="http://www.inkscape.org/namespaces/inkscape"
   clip-rule="evenodd"
   fill-rule="evenodd"
   stroke-linejoin="round"
   stroke-miterlimit="1.414"
   viewBox="0 0 400 400"
   version="1.1"
   id="svg4"
   sodipodi:docname="cloudcity.1dd66845.svg"
   inkscape:version="1.0.1 (0767f8302a, 2020-10-17)">
  <metadata
     id="metadata10">
    <rdf:RDF>
      <cc:Work
         rdf:about="">
        <dc:format>image/svg+xml</dc:format>
        <dc:type
           rdf:resource="http://purl.org/dc/dcmitype/StillImage" />
      </cc:Work>
    </rdf:RDF>
  </metadata>
  <defs
     id="defs8" />
  <sodipodi:namedview
     pagecolor="#ffffff"
     bordercolor="#666666"
     borderopacity="1"
     objecttolerance="10"
     gridtolerance="10"
     guidetolerance="10"
     inkscape:pageopacity="0"
     inkscape:pageshadow="2"
     inkscape:window-width="1866"
     inkscape:window-height="1016"
     id="namedview6"
     showgrid="false"
     inkscape:zoom="2.155"
     inkscape:cx="200"
     inkscape:cy="200"
     inkscape:window-x="54"
     inkscape:window-y="27"
     inkscape:window-maximized="1"
     inkscape:current-layer="svg4" />
  <path
     d="M333.59 53.285h-16.84C284.266 28.49 116.2 29.38 86.49 53.277H69.345l-33.52 16.892 331.83-.051zm40.313 24.485l-345.269.062-18.76 25.22.212 9.51 149.213 25.552-.075 8.772c7.746 11.673 18.203 18.115 31.107 19.833l-.18 7.897 6.168-.077 2.248 165.503-8.293 10.991-.01 15.321 9.791 7.162 3.147.008 9.352-7.328.04-15.204-8.157-11.04 1.334-165.53 6.959-.087-.162-7.822c21.061-4.576 22.978-10.405 31.203-19.705l-.251-8.765 149.233-26.726.004-7.986z"
     fill="#fff"
     id="path2"
     style="fill:#000000" />
</svg>
