<svg width="44" height="50" fill="none" xmlns="http://www.w3.org/2000/svg"><path d="M24.826 12.362h-6.063l-3.031 5.29 3.031 5.241h6.063l3.03-5.242-3.03-5.289zm-.806 9.102h-4.452l-2.226-3.813 2.226-3.86h4.452l2.227 3.86-2.227 3.813z" fill="#2F2F2F"/><path d="M24.02 13.744h-4.452l-2.226 3.908 2.226 3.812h4.452l2.227-3.812-2.227-3.908z" fill="#E82429"/><path d="M24.885 23.574a.069.069 0 00-.06-.035h-6.062a.069.069 0 00-.06.035l-3.03 5.29a.069.069 0 000 .068l3.03 5.241a.069.069 0 00.06.035h6.063a.069.069 0 00.059-.035l3.031-5.241a.069.069 0 000-.069l-3.03-5.29zm1.282 5.37l-2.186 3.744h-4.373l-2.187-3.743 2.187-3.791h4.373l2.186 3.79z" fill="#2F2F2F" stroke="#2F2F2F" stroke-width=".2" stroke-linejoin="round"/><path d="M24.02 25.037h-4.452l-2.226 3.86 2.226 3.86h4.452l2.227-3.86-2.227-3.86z" fill="#6289C6"/><path d="M24.885 1.034a.069.069 0 00-.06-.034h-6.062a.069.069 0 00-.06.034l-3.03 5.29a.069.069 0 000 .068l3.03 5.242a.069.069 0 00.06.034h6.063a.069.069 0 00.059-.034l3.031-5.242a.069.069 0 000-.068l-3.03-5.29zm1.282 5.276l-2.186 3.792h-4.373L17.42 6.356l2.187-3.838h4.373l2.186 3.791v0z" fill="#2F2F2F" stroke="#2F2F2F" stroke-width=".2" stroke-linejoin="round"/><path d="M24.02 2.45h-4.452l-2.226 3.908 2.226 3.812h4.452l2.227-3.812-2.227-3.907z" fill="#F9C515"/><path d="M34.736 17.998a.069.069 0 00-.06-.034h-6.014a.069.069 0 00-.06.034l-3.031 5.29a.068.068 0 000 .068l3.031 5.242a.069.069 0 00.06.034h6.062a.069.069 0 00.06-.034l3.031-5.242a.068.068 0 000-.069l-3.079-5.29zm1.283 5.323l-2.187 3.744H29.46l-2.186-3.744 2.186-3.79h4.373l2.187 3.79v0z" fill="#2F2F2F" stroke="#2F2F2F" stroke-width=".2" stroke-linejoin="round"/><path d="M33.872 19.415h-4.405l-2.226 3.907 2.226 3.812h4.405l2.273-3.812-2.273-3.907z" fill="#8061A9"/><path d="M34.736 6.705a.069.069 0 00-.06-.034h-6.014a.069.069 0 00-.06.034l-3.031 5.242a.069.069 0 000 .068l3.031 5.242a.068.068 0 00.06.034h6.062a.069.069 0 00.06-.034l3.031-5.242a.069.069 0 000-.069l-3.079-5.241v0zm1.283 5.323l-2.187 3.744H29.46l-2.186-3.744 2.186-3.79h4.373l2.187 3.79v0z" fill="#2F2F2F" stroke="#2F2F2F" stroke-width=".2" stroke-linejoin="round"/><path d="M33.872 8.121h-4.405l-2.226 3.908 2.226 3.812h4.405l2.273-3.812-2.273-3.908z" fill="#F17423"/><path d="M14.986 17.998a.069.069 0 00-.06-.034H8.911a.069.069 0 00-.06.034l-3.03 5.29a.069.069 0 000 .068l3.03 5.242a.069.069 0 00.06.034h6.063a.069.069 0 00.06-.034l3.03-5.242a.069.069 0 000-.069l-3.078-5.29v0zm1.33 5.323l-2.234 3.744H9.756L7.57 23.321l2.186-3.79h4.373l2.186 3.79v0z" fill="#2F2F2F" stroke="#2F2F2F" stroke-width=".2" stroke-linejoin="round"/><path d="M14.121 19.415H9.716L7.49 23.322l2.226 3.812h4.405l2.274-3.812-2.274-3.907z" fill="#97C93D"/><path d="M14.986 6.705a.068.068 0 00-.06-.034H8.911a.069.069 0 00-.06.034l-3.03 5.242a.069.069 0 000 .068l3.03 5.242a.069.069 0 00.06.034h6.063a.069.069 0 00.06-.034l3.03-5.242a.068.068 0 000-.069l-3.079-5.241v0zm1.33 5.323l-2.234 3.744H9.756L7.57 12.028l2.186-3.79h4.373l2.186 3.79v0z" fill="#2F2F2F" stroke="#2F2F2F" stroke-width=".2" stroke-linejoin="round"/><path d="M14.121 8.121H9.716L7.49 12.03l2.226 3.812h4.405l2.274-3.812L14.12 8.12z" fill="#CADD72"/><path d="M4.116 48.986c-.837 0-1.57-.196-2.198-.587-.618-.392-1.091-.942-1.422-1.651-.33-.721-.496-1.56-.496-2.513 0-.954.17-1.798.512-2.531.353-.734.844-1.303 1.472-1.706.628-.404 1.36-.605 2.198-.605.584 0 1.146.11 1.686.33.54.208.976.495 1.306.862l-.512 1.119c-.843-.632-1.57-.807-2.364-.807-.804 0-1.433.293-1.885.88-.451.575-.677 1.388-.677 2.44 0 1.051.226 1.865.677 2.44.452.562 1.08.843 1.885.843.816 0 1.52-.233 2.364-.844l.512 1.156c-.352.367-.804.654-1.355.862a4.698 4.698 0 01-1.703.312zm4.63-9.373h1.652v9.244H8.745v-9.244zm4.1-3.745h1.653v12.99h-1.653v-12.99zm4.1 3.745H18.6v9.244h-1.653v-9.244zm8.209 9.538c1.366 0 2.344-.324 2.934-.972.59-.654.884-1.74.884-3.256v-5.31h-1.604v4.943c0 1.125-.167 1.926-.503 2.403-.337.477-.907.715-1.711.715-.8 0-1.367-.238-1.703-.715-.336-.477-.505-1.278-.505-2.403v-4.943h-1.603v5.31c0 1.516.295 2.602.885 3.256.59.648 1.565.972 2.926.972zm16.068-9.759c1.852 0 2.777 1.236 2.777 3.706v5.76h-1.67V43.19c0-.795-.126-1.376-.38-1.743-.242-.367-.64-.55-1.19-.55-.64 0-1.146.244-1.52.733-.364.49-.547 1.156-.547 2v5.227h-1.669V43.19c0-.795-.127-1.376-.38-1.743-.243-.367-.64-.55-1.19-.55-.64 0-1.147.244-1.521.733-.375.49-.563 1.156-.563 2v5.227h-1.653v-9.244h1.422l.149 1.54c.243-.562.59-.996 1.041-1.302.453-.306.981-.459 1.587-.459 1.29 0 2.133.594 2.53 1.78.253-.55.622-.985 1.107-1.303a3.03 3.03 0 011.67-.477zm-30.825-3.524H8.745v1.843h1.653v-1.843zm8.201 0h-1.653v1.843H18.6v-1.843z" fill="#2F2F2F"/></svg>