<?xml version="1.0" encoding="UTF-8"?>
<svg width="775px" height="163px" viewBox="0 0 775 163" version="1.1" xmlns="http://www.w3.org/2000/svg" xmlns:xlink="http://www.w3.org/1999/xlink">
    <!-- Generator: Sketch 40.1 (33804) - http://www.bohemiancoding.com/sketch -->
    <title>Logo</title>
    <desc>Created with Sketch.</desc>
    <defs/>
    <g id="Page-1" stroke="none" stroke-width="1" fill="none" fill-rule="evenodd">
        <g id="Logo" fill="#3798D4">
            <path d="M156.203894,102.03757 C156.203894,66.0454561 185.447435,45.243865 223.840046,45.243865 C262.232656,45.243865 291.476198,66.0454561 291.476198,102.03757 C291.476198,137.818615 262.232656,158.620205 223.840046,158.620205 C185.447435,158.620205 156.203894,137.818615 156.203894,102.03757 Z M249.957937,102.03757 C249.957937,85.8087374 242.363253,71.4533191 223.840046,71.4533191 C205.316838,71.4533191 197.723562,85.8087374 197.723562,102.03757 C197.723562,118.055334 205.316838,132.410751 223.840046,132.410751 C242.363253,132.410751 249.957937,118.055334 249.957937,102.03757 Z" id="Fill-1"/>
            <path d="M297.240786,102.03757 C297.240786,66.0454561 326.484328,45.243865 364.876938,45.243865 C403.269549,45.243865 432.507463,66.0454561 432.507463,102.03757 C432.507463,137.818615 403.269549,158.620205 364.876938,158.620205 C326.484328,158.620205 297.240786,137.818615 297.240786,102.03757 Z M364.876938,71.4533191 C346.348104,71.4533191 338.760454,85.8087374 338.760454,102.03757 C338.760454,118.055334 346.348104,132.410751 364.876938,132.410751 C383.400145,132.410751 390.989202,118.055334 390.989202,102.03757 C390.989202,85.8087374 383.400145,71.4533191 364.876938,71.4533191 Z" id="Fill-2"/>
            <path d="M41.9488471,35.9620054 L58.015985,35.9620054 C88.3750264,35.9620054 106.459349,50.9362144 106.459349,79.8554995 C106.459349,108.773474 88.3750264,123.747682 58.015985,123.747682 L41.9488471,123.747682 L41.9488471,35.9620054 L41.9488471,35.9620054 Z M149.313959,79.2301539 C149.313959,23.0617939 111.36586,7.2537908 57.1157077,7.2537908 L0.430586146,7.2537908 L0.430586146,152.461141 L57.1157077,152.461141 C111.36586,152.461141 149.313959,136.653138 149.313959,80.4795341 C149.313959,80.2645307 149.302705,80.065259 149.302705,79.8554995 C149.302705,79.644429 149.313959,79.4451574 149.313959,79.2301539 L149.313959,79.2301539 L149.313959,79.2301539 Z" id="Fill-3"/>
            <polygon id="Fill-4" points="588.127442 0.0970576018 628.305134 0.0970576018 628.305134 156.126689 588.127442 156.126689"/>
            <path d="M505.908203,132.410751 C487.384996,132.410751 479.790313,118.055334 479.790313,102.03757 C479.790313,85.8087374 487.384996,71.4533191 505.908203,71.4533191 C524.431411,71.4533191 532.019061,85.8087374 532.019061,102.03757 C532.019061,118.055334 524.431411,132.410751 505.908203,132.410751 L505.908203,132.410751 L505.908203,132.410751 Z M533.365257,0.0970576018 L533.365257,49.284358 C525.040504,46.6269669 515.781714,45.243865 505.908203,45.243865 C467.515594,45.243865 438.272052,66.0454561 438.272052,102.03757 C438.272052,137.818615 467.515594,158.620205 505.908203,158.620205 C515.781714,158.620205 526.255879,154.727855 533.365257,150.553641 L533.365257,156.125379 L573.544355,156.125379 L573.544355,0.0970576018 L533.365257,0.0970576018 L533.365257,0.0970576018 Z" id="Fill-5"/>
            <path d="M684.073098,91.6151431 C686.837231,80.1386749 694.600717,71.4533191 708.998121,71.4533191 C723.388492,71.4533191 731.164639,80.1386749 733.923144,91.6151431 L684.073098,91.6151431 L684.073098,91.6151431 Z M726.547904,47.7439364 C720.62436,46.1353429 713.942614,45.243865 706.404197,45.243865 C706.11864,45.243865 705.833083,45.2595969 705.5419,45.2595969 C705.233837,45.2595969 704.9314,45.243865 704.619116,45.243865 C666.230726,45.243865 636.987185,66.0454561 636.987185,102.03757 C636.987185,137.818615 666.230726,158.620205 704.619116,158.620205 C705.827457,158.620205 707.020325,158.604474 708.200532,158.563833 C709.382145,158.604474 710.575013,158.620205 711.767881,158.620205 C726.723739,158.620205 741.461561,156.546208 754.407268,151.757136 L754.407268,125.337922 C742.351991,131.371131 729.850797,133.660132 718.911019,133.660132 C713.766778,133.660132 709.145823,133.244546 705.069255,132.389775 C693.545704,129.967052 686.402566,123.908936 684.753933,112.853296 L771.287469,112.853296 C771.567399,111.316808 771.798096,109.759344 771.964084,108.161238 C772.155393,106.175078 772.260895,104.131233 772.260895,102.03757 C772.260895,73.297892 753.611085,54.2569701 726.547904,47.7439364 L726.547904,47.7439364 L726.547904,47.7439364 Z" id="Fill-7"/>
        </g>
    </g>
</svg>