<svg xmlns="http://www.w3.org/2000/svg" width="174" height="52" viewBox="0 0 174 52"><path fill="#E5261F" d="M174 10.047c0 1.735-.14 3.47-.412 5.336l-3.018 20.974h-9.801l3.53-21.786c.139-.968.334-1.812.203-2.703-.695-4.75-7.739-4.322-10.575-3.282l-4.42 27.77h-9.732l5.657-34.295s16.412-.664 19.241-.664c5.875 0 9.327 3.25 9.327 8.65M120.429 0c9.398 0 15.265 6.025 15.265 15.581 0 13.018-7.527 21.465-18.99 21.465-9.461 0-15.266-5.955-15.266-15.714C101.438 8.446 108.965 0 120.428 0m3.11 25.755c1.45-3.594 2.212-8.096 2.212-12.463 0-4.915-1.87-7.409-5.664-7.409-2.969 0-5.113 1.735-6.492 5.408-1.45 3.594-2.204 8.095-2.204 12.393 0 4.985 1.93 7.478 5.656 7.478 3.04 0 5.043-1.665 6.492-5.407M98.063.344l-6.009 38.02C90.604 47.852 85.353 52 74.996 52c-3.591 0-7.668-.625-14.3-2.21l.898-5.612c4.284.76 7.465 1.11 10.707 1.11 6.974 0 9.188-1.804 10.223-8.384l.546-3.462c-.305.15-.604.312-.896.485-4.621 2.494-6.212 3.056-8.766 3.056-6.423 0-10.295-5.338-10.295-14.207C63.113 9.768 71.333.14 82.523.14c2.487 0 15.54.204 15.54.204m-14.16 28.113L87.287 6.65a17.51 17.51 0 0 0-2.556-.212c-4.279 0-7.046 1.523-9.118 5.057-1.581 2.703-2.549 6.72-2.549 10.594 0 5.057 1.794 7.478 5.728 7.478 1.31 0 2.969-.343 5.113-1.11M62.302.968l-1.308 8.315c-2.557-1.11-4.497-1.595-6.562-1.595-1.941 0-4.006.485-5.805 1.313l-4.349 27.356h-9.74L40.2.625h9.53l-.551 3.32C53.878.968 55.95.07 58.366.07c1.45 0 2.829.274 3.936.898M20.72.07c7.177 0 11.183 3.11 11.183 8.658 0 8.235-6.492 12.321-19.545 12.321H9.944c-.071.555-.071.9-.071 1.384 0 5.611 2.556 8.172 8.292 8.172 2.829 0 4.69-.21 9.25-1.108l-.755 5.197c-5.254 1.663-8.153 2.21-11.605 2.21C5.315 36.904 0 31.778 0 22.363 0 9.14 8.423.07 20.72.07m2.004 8.862c0-2.282-1.318-3.534-3.803-3.534-4.42 0-7.527 3.885-8.423 10.455h.965c7.387-.07 11.26-2.492 11.26-6.921"/></svg>