<?xml version="1.0" encoding="UTF-8" standalone="no"?>
<svg
   width="172"
   height="130"
   viewBox="0 0 172 130"
   version="1.1"
   id="svg18"
   sodipodi:docname="fortify.svg"
   inkscape:version="1.2 (dc2aedaf03, 2022-05-15)"
   xmlns:inkscape="http://www.inkscape.org/namespaces/inkscape"
   xmlns:sodipodi="http://sodipodi.sourceforge.net/DTD/sodipodi-0.dtd"
   xmlns:xlink="http://www.w3.org/1999/xlink"
   xmlns="http://www.w3.org/2000/svg"
   xmlns:svg="http://www.w3.org/2000/svg">
  <sodipodi:namedview
     id="namedview20"
     pagecolor="#ffffff"
     bordercolor="#666666"
     borderopacity="1.0"
     inkscape:showpageshadow="2"
     inkscape:pageopacity="0.0"
     inkscape:pagecheckerboard="0"
     inkscape:deskcolor="#d1d1d1"
     showgrid="false"
     inkscape:zoom="6.5384615"
     inkscape:cx="85.341176"
     inkscape:cy="65.076471"
     inkscape:window-width="1866"
     inkscape:window-height="1016"
     inkscape:window-x="54"
     inkscape:window-y="27"
     inkscape:window-maximized="1"
     inkscape:current-layer="svg18" />
  <defs
     id="defs3">
    <path
       id="a"
       d="M0 0h54v24H0z" />
  </defs>
  <g
     transform="translate(0,0.6)"
     id="g10"
     style="fill:none;fill-rule:evenodd">
    <mask
       id="b"
       fill="#ffffff">
      <use
         xlink:href="#a"
         id="use5" />
    </mask>
    <path
       d="M 29.588,24 H 0 V 0 H 54 C 54,13.254 43.07,24 29.588,24"
       fill="#f72147"
       mask="url(#b)"
       id="path8" />
  </g>
  <path
     d="M 29.588,53.6 H 0 v -24 h 54 c 0,13.255 -10.93,24 -24.412,24"
     fill="#f72147"
     id="path12"
     style="fill-rule:evenodd" />
  <path
     fill="#ffffff"
     d="m 3,117.6 v -42 h 28 v 7.871 H 11.424 v 8.879 h 19.16 v 7.87 h -19.16 v 17.38 z m 46.47,-4.908 c 1.213,0 2.283,-0.234 3.215,-0.703 a 7.013,7.013 0 0 0 2.336,-1.866 c 0.626,-0.773 1.112,-1.68 1.455,-2.72 0.344,-1.04 0.516,-2.15 0.516,-3.332 0,-1.141 -0.172,-2.233 -0.516,-3.271 -0.343,-1.04 -0.829,-1.946 -1.455,-2.721 a 7.05,7.05 0 0 0 -2.336,-1.865 c -0.932,-0.469 -2.002,-0.703 -3.215,-0.703 -1.214,0 -2.275,0.234 -3.185,0.703 a 7.446,7.446 0 0 0 -2.336,1.865 c -0.647,0.775 -1.132,1.681 -1.456,2.72 a 10.882,10.882 0 0 0 -0.485,3.272 c 0,1.182 0.16,2.291 0.485,3.332 0.324,1.04 0.809,1.947 1.456,2.72 a 7.404,7.404 0 0 0 2.336,1.866 c 0.91,0.47 1.971,0.703 3.185,0.703 m 0,6.908 c -2.427,0 -4.59,-0.418 -6.492,-1.252 -1.9,-0.835 -3.518,-1.956 -4.853,-3.363 a 14.528,14.528 0 0 1 -3.063,-4.922 C 34.354,108.188 34,106.191 34,104.071 c 0,-2.079 0.354,-4.056 1.062,-5.93 0.707,-1.876 1.729,-3.518 3.063,-4.923 1.335,-1.406 2.953,-2.527 4.853,-3.363 1.901,-0.835 4.065,-1.255 6.492,-1.255 2.426,0 4.6,0.42 6.521,1.255 1.921,0.836 3.55,1.957 4.884,3.363 1.334,1.405 2.356,3.047 3.063,4.922 A 16.691,16.691 0 0 1 65,104.071 c 0,2.12 -0.356,4.117 -1.062,5.992 a 14.528,14.528 0 0 1 -3.063,4.922 c -1.335,1.407 -2.963,2.528 -4.884,3.363 -1.92,0.834 -4.095,1.252 -6.521,1.252 M 68,118.6 V 88.352 h 8.135 v 4.133 c 1.11,-1.336 2.552,-2.483 4.324,-3.445 1.772,-0.96 3.62,-1.44 5.541,-1.44 v 7.766 c -0.598,-0.126 -1.345,-0.188 -2.242,-0.188 -0.683,0 -1.4,0.083 -2.146,0.25 -0.747,0.167 -1.473,0.407 -2.178,0.72 -0.704,0.314 -1.345,0.679 -1.922,1.096 -0.576,0.418 -1.035,0.877 -1.377,1.378 V 118.6 Z m 32.765,-1 c -2.628,0 -4.628,-0.675 -5.999,-2.03 -1.374,-1.354 -2.06,-3.342 -2.06,-5.97 V 94.328 H 88 V 87.6 h 4.706 v -8 h 7.53 v 8 H 106 v 6.728 h -5.765 v 13.21 c 0,0.932 0.226,1.698 0.677,2.306 0.45,0.604 1.088,0.909 1.913,0.909 0.55,0 1.067,-0.093 1.559,-0.273 0.49,-0.183 0.832,-0.374 1.03,-0.576 l 1.586,5.819 c -0.549,0.523 -1.333,0.968 -2.353,1.333 -1.02,0.364 -2.314,0.544 -3.882,0.544 m 8.005,0 h 7.518 V 88.03 h -7.518 z m 3.73,-32.754 c -1.223,0 -2.278,-0.449 -3.166,-1.347 -0.888,-0.9 -1.334,-2 -1.334,-3.307 0,-1.305 0.446,-2.397 1.334,-3.276 0.888,-0.876 1.943,-1.316 3.167,-1.316 1.261,0 2.328,0.44 3.197,1.316 0.866,0.88 1.302,1.971 1.302,3.276 0,1.307 -0.436,2.408 -1.302,3.307 -0.869,0.898 -1.936,1.347 -3.197,1.347 z M 123.77,117.6 V 94.522 H 119 v -6.887 h 4.77 v -1.613 c 0,-3.226 0.894,-5.77 2.683,-7.63 1.787,-1.861 4.132,-2.792 7.034,-2.792 1.391,0 2.763,0.207 4.116,0.62 1.35,0.416 2.484,1.138 3.397,2.172 l -2.86,4.653 c -0.797,-0.828 -1.849,-1.241 -3.16,-1.241 -1.034,0 -1.889,0.353 -2.564,1.054 -0.676,0.704 -1.016,1.758 -1.016,3.164 v 1.613 h 5.845 v 6.887 H 131.4 V 117.6 Z m 19.693,4.517 c 0.335,0.165 0.744,0.287 1.226,0.371 0.481,0.083 0.913,0.124 1.288,0.124 1.048,0 1.917,-0.155 2.61,-0.464 0.69,-0.31 1.224,-0.877 1.603,-1.703 l 1.13,-2.534 L 139,87.6 h 8.549 l 7.92,20.784 7.92,-20.784 H 172 l -14.269,34.764 c -1.131,2.803 -2.681,4.702 -4.651,5.691 -1.97,0.99 -4.253,1.505 -6.851,1.545 -0.463,0 -1.11,-0.04 -1.949,-0.122 -0.84,-0.084 -1.509,-0.186 -2.011,-0.31 z"
     id="path14"
     style="fill-rule:evenodd;fill:#000000" />
</svg>
