<?xml version="1.0" encoding="UTF-8" standalone="no"?>
<svg
   id="Guides"
   viewBox="0 0 406.82452 82.910004"
   version="1.1"
   sodipodi:docname="keycloak.svg"
   width="406.82452"
   height="82.910004"
   inkscape:version="1.1 (c68e22c387, 2021-05-23)"
   xmlns:inkscape="http://www.inkscape.org/namespaces/inkscape"
   xmlns:sodipodi="http://sodipodi.sourceforge.net/DTD/sodipodi-0.dtd"
   xmlns="http://www.w3.org/2000/svg"
   xmlns:svg="http://www.w3.org/2000/svg"
   xmlns:rdf="http://www.w3.org/1999/02/22-rdf-syntax-ns#"
   xmlns:cc="http://creativecommons.org/ns#"
   xmlns:dc="http://purl.org/dc/elements/1.1/">
  <sodipodi:namedview
     id="namedview307"
     pagecolor="#ffffff"
     bordercolor="#666666"
     borderopacity="1.0"
     inkscape:pageshadow="2"
     inkscape:pageopacity="0.0"
     inkscape:pagecheckerboard="0"
     showgrid="false"
     fit-margin-top="0"
     fit-margin-left="0"
     fit-margin-right="0"
     fit-margin-bottom="0"
     inkscape:zoom="1.8755556"
     inkscape:cx="202.60664"
     inkscape:cy="41.854265"
     inkscape:window-width="1866"
     inkscape:window-height="1016"
     inkscape:window-x="1974"
     inkscape:window-y="27"
     inkscape:window-maximized="1"
     inkscape:current-layer="Guides" />
  <defs
     id="defs12">
    <style
       id="style2">.cls-1{fill:none;}.cls-2{fill:#4d4d4d;}.cls-3{clip-path:url(#clip-path);}.cls-4{fill:url(#linear-gradient);}.cls-5{fill:#e1e1e1;}.cls-6{fill:#585858;}.cls-7{fill:#696969;}.cls-8{fill:#5e5e5e;}.cls-9{fill:#6d6d6d;}.cls-10{fill:#636363;}.cls-11{fill:#737373;}.cls-12{fill:#757575;}.cls-13{fill:#646464;}.cls-14{fill:#6c6c6c;}.cls-15{fill:#606060;}.cls-16{fill:#707070;}.cls-17{fill:#767676;}.cls-18{fill:#797979;}.cls-19{fill:#7f7f7f;}.cls-20{fill:#868686;}.cls-21{fill:#8a8a8a;}.cls-22{fill:#7d7d7d;}.cls-23{fill:#919191;}.cls-24{fill:#858585;}.cls-25{fill:#929292;}.cls-26{fill:#898989;}.cls-27{fill:#8f8f8f;}.cls-28{fill:#999;}.cls-29{fill:#979797;}.cls-30{fill:#9f9f9f;}.cls-31{fill:#a6a6a6;}.cls-32{fill:#a0a0a0;}.cls-33{fill:#9b9b9b;}.cls-34{fill:#9d9d9d;}.cls-35{fill:#a3a3a3;}.cls-36{fill:#aaa;}.cls-37{fill:#a9a9a9;}.cls-38{fill:#989898;}.cls-39{fill:#b1b1b1;}.cls-40{fill:#9e9e9e;}.cls-41{fill:#a4a4a4;}.cls-42{fill:#aeaeae;}.cls-43{fill:#ababab;}.cls-44{fill:#b4b4b4;}.cls-45{fill:#a2a2a2;}.cls-46{fill:#bcbcbc;}.cls-47{fill:#b8b8b8;}.cls-48{fill:#b0b0b0;}.cls-49{fill:#b9b9b9;}.cls-50{fill:#bfbfbf;}.cls-51{fill:#b5b5b5;}.cls-52{fill:#bdbdbd;}.cls-53{fill:#b6b6b6;}.cls-54{fill:#c3c3c3;}.cls-55{fill:#c9c9c9;}.cls-56{fill:#bbb;}.cls-57{fill:#c1c1c1;}.cls-58{fill:#c6c6c6;}.cls-59{fill:#cdcdcd;}.cls-60{fill:#ccc;}.cls-61{fill:#c2c2c2;}.cls-62{fill:#c8c8c8;}.cls-63{fill:#c7c7c7;}.cls-64{fill:#cecece;}.cls-65{fill:#d3d3d3;}.cls-66{fill:#d5d5d5;}.cls-67{fill:#d0d0d0;}.cls-68{fill:#d9d9d9;}.cls-69{fill:#d4d4d4;}.cls-70{fill:#d8d8d8;}.cls-71{fill:#e2e2e2;}.cls-72{fill:#e4e4e4;}.cls-73{fill:#dedede;}.cls-74{fill:#c5c5c5;}.cls-75{fill:#d1d1d1;}.cls-76{fill:#cbcbcb;}.cls-77{fill:#d7d7d7;}.cls-78{fill:#ddd;}.cls-79{fill:#e3e3e3;}.cls-80{fill:#00b8e3;}.cls-81{fill:#33c6e9;}.cls-82{fill:#008aaa;}</style>
    <clipPath
       id="clip-path">
      <path
         class="cls-1"
         d="m 428,245.69 h -9.77 a 0.42,0.42 0 0 1 -0.33,-0.17 l -0.76,-1 -2.14,-2.82 -5.68,-7.7 -3.18,-4.28 a 0.41,0.41 0 0 0 -0.63,0 l -3.33,3.71 -0.38,0.43 a 0.4,0.4 0 0 0 -0.1,0.27 v 11.16 a 0.41,0.41 0 0 1 -0.41,0.41 h -8.42 a 0.41,0.41 0 0 1 -0.41,-0.41 v -40.55 a 0.4,0.4 0 0 1 0.41,-0.41 h 8.42 a 0.41,0.41 0 0 1 0.41,0.41 v 15.53 a 0.4,0.4 0 0 0 0.7,0.28 l 4.65,-5 6.95,-7.55 3.24,-3.52 a 0.41,0.41 0 0 1 0.3,-0.13 h 10.34 a 0.4,0.4 0 0 1 0.41,0.42 0.46,0.46 0 0 1 -0.1,0.25 l -4.66,5.17 -7.74,8.61 -3.23,3.58 a 0.4,0.4 0 0 0 0,0.5 l 4,5.63 3.66,5.16 0.45,0.63 2.77,3.88 2.89,4.06 2,2.82 a 0.41,0.41 0 0 1 -0.33,0.63 z m -38.72,-0.57 a 0.41,0.41 0 0 1 -0.37,0.57 h -8.94 a 0.4,0.4 0 0 1 -0.37,-0.25 l -0.18,-0.4 v 0 l -3.46,-8 a 0.4,0.4 0 0 0 -0.37,-0.25 h -16.8 a 0.41,0.41 0 0 0 -0.38,0.25 l -0.52,1.2 -3.12,7.25 v 0 a 0.41,0.41 0 0 1 -0.36,0.23 h -8.94 a 0.41,0.41 0 0 1 -0.37,-0.57 l 0.62,-1.44 4.22,-9.76 v 0 l 0.15,-0.34 0.18,-0.41 0.08,-0.2 1.4,-3.25 v 0 0 l 10.84,-25.09 a 0.41,0.41 0 0 1 0.37,-0.25 h 8.4 a 0.4,0.4 0 0 1 0.37,0.25 l 5.64,13 2.79,6.44 3.12,7.21 5.9,13.66 z m -17.16,-17 -0.59,-1.38 -2,-4.63 -2,-4.57 a 0.41,0.41 0 0 0 -0.75,0 l -3.51,8.11 -1.07,2.48 a 0.4,0.4 0 0 0 0.37,0.56 h 9.13 a 0.4,0.4 0 0 0 0.37,-0.61 z m -26.51,4.66 a 17.7,17.7 0 0 1 -0.83,1.84 20.76,20.76 0 0 1 -4,5.37 v 0 a 22.08,22.08 0 0 1 -2.26,1.94 21,21 0 0 1 -11.68,4.14 c -0.5,0 -1,0 -1.51,0 a 21.6,21.6 0 0 1 -12.1,-3.42 22,22 0 0 1 -3.34,-2.7 c -0.41,-0.41 -0.81,-0.82 -1.18,-1.24 a 20.43,20.43 0 0 1 -5.1,-14 23.47,23.47 0 0 1 0.27,-3.6 v 0 l -0.19,-0.28 0.3,-0.45 a 20.05,20.05 0 0 1 5.89,-10.91 22,22 0 0 1 3.12,-2.47 20.33,20.33 0 0 1 7.39,-3.09 v 0 a 23.77,23.77 0 0 1 4.92,-0.49 21.25,21.25 0 0 1 15.45,6.13 20.25,20.25 0 0 1 6.17,12.94 v 0 c 0.07,0.74 0.1,1.51 0.1,2.28 a 21.76,21.76 0 0 1 -1.47,7.97 z m -8,-8 a 13.54,13.54 0 0 0 -3.18,-9 5.22,5.22 0 0 0 -0.36,-0.43 11.34,11.34 0 0 0 -8.73,-3.9 12.49,12.49 0 0 0 -2.67,0.28 11.4,11.4 0 0 0 -6.06,3.62 13.44,13.44 0 0 0 -3.55,9.12 c 0,0.11 0,0.21 0,0.32 a 13.41,13.41 0 0 0 3.56,9.41 11.78,11.78 0 0 0 1.07,1 11.35,11.35 0 0 0 2.33,1.6 12.09,12.09 0 0 0 10.81,-0.09 11.76,11.76 0 0 0 2.87,-2.18 l 0.36,-0.38 a 13.42,13.42 0 0 0 2,-2.83 13.84,13.84 0 0 0 1.53,-6.55 z m -34.51,12.69 h -16.85 a 0.4,0.4 0 0 1 -0.41,-0.4 v -32.33 a 0.4,0.4 0 0 0 -0.23,-0.36 0.35,0.35 0 0 0 -0.17,0 H 277 a 0.4,0.4 0 0 0 -0.41,0.41 v 40.55 a 0.41,0.41 0 0 0 0.41,0.41 h 26 a 0.41,0.41 0 0 0 0.41,-0.41 v -7.42 a 0.41,0.41 0 0 0 -0.34,-0.46 z m -45.76,-34 c -0.67,-0.05 -1.34,-0.08 -2,-0.08 a 21.24,21.24 0 0 0 -15.42,6.15 22.18,22.18 0 0 0 -2.08,2.35 v 0 a 20.67,20.67 0 0 0 -4.22,13 22.27,22.27 0 0 0 1.35,7.89 19.26,19.26 0 0 0 2.08,4.05 v 0 a 20.42,20.42 0 0 0 2.74,3.28 20.93,20.93 0 0 0 4.13,3.14 v 0 c 0.37,0.21 0.75,0.42 1.13,0.61 0.38,0.19 0.56,0.27 0.85,0.39 v 0 a 23.61,23.61 0 0 0 9.6,1.88 21.39,21.39 0 0 0 3.07,-0.22 v 0 c 0.64,-0.09 1.27,-0.21 1.9,-0.36 a 21.44,21.44 0 0 0 9.63,-5.32 c 0.58,-0.54 1.16,-1.12 1.73,-1.74 a 0.41,0.41 0 0 0 0,-0.56 l -5.34,-5.49 a 0.39,0.39 0 0 0 -0.36,-0.12 0.44,0.44 0 0 0 -0.24,0.14 13.55,13.55 0 0 1 -10.84,5 12.05,12.05 0 0 1 -4.18,-0.71 11.73,11.73 0 0 1 -4.28,-2.79 11.29,11.29 0 0 1 -2.7,-4.3 14.68,14.68 0 0 1 -0.79,-5 12,12 0 0 1 3.21,-8.7 l 0.49,-0.47 a 12.68,12.68 0 0 1 8.91,-3.4 13.35,13.35 0 0 1 10.59,5.08 0.4,0.4 0 0 0 0.61,0 l 5.19,-5.89 a 0.42,0.42 0 0 0 0,-0.55 21.73,21.73 0 0 0 -14.78,-7.27 z m -23.34,4.2 1.57,-2.74 a 0.4,0.4 0 0 0 -0.35,-0.61 h -9.07 a 0.41,0.41 0 0 0 -0.35,0.2 l -8.22,14.15 v 0 l -0.44,0.32 -0.33,0.25 a 0.42,0.42 0 0 1 -0.17,-0.16 l -0.14,-0.23 -0.21,-0.35 -8.12,-14 a 0.41,0.41 0 0 0 -0.35,-0.2 h -9.07 a 0.41,0.41 0 0 0 -0.35,0.61 l 3.93,6.88 7.12,12.44 2.87,5 a 0.41,0.41 0 0 1 0.06,0.2 v 15.82 a 0.41,0.41 0 0 0 0.41,0.41 h 8.42 a 0.41,0.41 0 0 0 0.41,-0.41 v -15.79 a 0.41,0.41 0 0 1 0.06,-0.2 l 2,-3.55 7.7,-13.46 1.57,-2.74 1,-1.83 v 0 z m -38.85,29.85 H 174.7 a 0.41,0.41 0 0 1 -0.41,-0.41 v -7.77 a 0.41,0.41 0 0 1 0.41,-0.41 h 17.71 a 0.41,0.41 0 0 0 0.41,-0.41 v -7.06 a 0.41,0.41 0 0 0 -0.41,-0.41 H 174.7 a 0.41,0.41 0 0 1 -0.41,-0.41 V 213 a 0.41,0.41 0 0 1 0.41,-0.41 h 19.78 a 0.41,0.41 0 0 0 0.41,-0.41 v -7.41 a 0.41,0.41 0 0 0 -0.41,-0.41 h -29 a 0.4,0.4 0 0 0 -0.41,0.41 v 40.55 a 0.41,0.41 0 0 0 0.41,0.41 h 29.66 a 0.41,0.41 0 0 0 0.41,-0.41 v -7.36 a 0.41,0.41 0 0 0 -0.42,-0.44 z m -34.82,7 -3.84,-5.38 -3.93,-5.52 -0.14,-0.21 q -5.38,-7.57 -7.54,-10.58 a 0.4,0.4 0 0 1 0,-0.5 l 3.69,-4.09 v 0 l 3,-3.37 2.92,-3.24 6,-6.66 a 0.4,0.4 0 0 0 -0.3,-0.67 h -10.31 a 0.41,0.41 0 0 0 -0.3,0.13 l -6.4,7 -8.4,9.13 a 0.4,0.4 0 0 1 -0.7,-0.28 v -15.55 a 0.4,0.4 0 0 0 -0.41,-0.4 h -8.42 a 0.4,0.4 0 0 0 -0.41,0.41 v 40.55 a 0.41,0.41 0 0 0 0.41,0.41 h 8.42 a 0.41,0.41 0 0 0 0.41,-0.41 v -11.16 a 0.4,0.4 0 0 1 0.1,-0.27 l 1.75,-2 2,-2.17 a 0.41,0.41 0 0 1 0.63,0 l 5.84,7.85 4.19,5.65 1.68,2.27 a 0.4,0.4 0 0 0 0.32,0.17 h 9.78 a 0.41,0.41 0 0 0 0.33,-0.65 z M 120,204.28 H 33.93 a 0.78,0.78 0 0 0 -0.66,0.37 c 0,0 0,0 0,0 l -0.43,0.74 -5.27,9.13 -5.82,10.09 a 0.76,0.76 0 0 0 0,0.76 l 1.25,2.21 10.25,17.76 a 0.77,0.77 0 0 0 0.67,0.39 H 120 a 0.85,0.85 0 0 0 0.85,-0.85 V 205.14 A 0.86,0.86 0 0 0 120,204.28 Z"
         id="path4" />
    </clipPath>
    <linearGradient
       id="linear-gradient"
       x1="20.709999"
       y1="225.61"
       x2="430.82999"
       y2="225.61"
       gradientUnits="userSpaceOnUse">
      <stop
         offset="0"
         stop-color="#e6e6e6"
         id="stop7" />
      <stop
         offset="1"
         stop-color="#595959"
         id="stop9" />
    </linearGradient>
  </defs>
  <title
     id="title14">keycloak_deliverables</title>
  <path
     class="cls-2"
     d="m 84.120299,20.760002 a 0.76,0.76 0 0 1 -0.66,-0.38 l -11.51,-19.99999982 a 0.78,0.78 0 0 0 -0.67,-0.3800000021374 h -47 A 0.76,0.76 0 0 0 23.620299,0.38000218 l -12,20.70999982 v 0 l -11.52000043,20 a 0.77,0.77 0 0 0 0,0.76 l 11.52000043,19.95 12,20.73 a 0.76,0.76 0 0 0 0.66,0.38 h 47 a 0.78,0.78 0 0 0 0.67,-0.38 l 11.52,-20 a 0.76,0.76 0 0 1 0.66,-0.38 h 14.3 a 0.86,0.86 0 0 0 0.86,-0.86 v -39.67 a 0.86,0.86 0 0 0 -0.86,-0.86 z"
     id="path16" />
  <g
     class="cls-3"
     clip-path="url(#clip-path)"
     id="g20"
     transform="translate(-21.569701,-183.52)">
    <rect
       class="cls-4"
       x="20.709999"
       y="197.91"
       width="410.13"
       height="55.400002"
       id="rect18"
       style="fill:url(#linear-gradient)" />
  </g>
  <path
     class="cls-5"
     d="m 14.300299,39.390002 -12.8700004,4.67 -1.27000003,-2.19 a 0.76,0.76 0 0 1 0,-0.76 l 5.82000003,-10.09 z"
     id="path22" />
  <path
     class="cls-6"
     d="m 406.4303,62.170002 h -5.31 l -4.85,-3 8.47,-0.43 2,2.82 a 0.41,0.41 0 0 1 -0.31,0.61 z"
     id="path24" />
  <path
     class="cls-6"
     d="m 401.0703,62.170002 h -4.46 a 0.42,0.42 0 0 1 -0.33,-0.17 l -0.76,-1 0.71,-1.84 z"
     id="path26" />
  <path
     class="cls-7"
     d="m 406.6703,21.230002 a 0.46,0.46 0 0 1 -0.1,0.25 l -4.66,5.17 -0.29,-2.9 z"
     id="path28" />
  <path
     class="cls-8"
     d="m 404.7003,58.710002 -8.47,0.43 5.58,-4.49 z"
     id="path30" />
  <path
     class="cls-9"
     d="m 406.6703,21.230002 -5,2.52 0.86,-2.94 h 3.78 a 0.4,0.4 0 0 1 0.36,0.42 z"
     id="path32" />
  <path
     class="cls-10"
     d="m 401.8103,54.640002 -5.58,4.49 2.81,-8.37 z"
     id="path34" />
  <polygon
     class="cls-11"
     points="418.29,204.33 424.05,204.33 423.19,207.27 "
     id="polygon36"
     transform="translate(-21.569701,-183.52)" />
  <path
     class="cls-12"
     d="m 380.1403,21.210002 v 4.19 l -9.23,0.72 v -4.9 a 0.4,0.4 0 0 1 0.41,-0.41 h 8.42 a 0.41,0.41 0 0 1 0.4,0.4 z"
     id="path38" />
  <path
     class="cls-12"
     d="m 401.6203,23.750002 -9.19,0.73 3.24,-3.52 a 0.41,0.41 0 0 1 0.3,-0.13 h 0.79 z"
     id="path40" />
  <path
     class="cls-13"
     d="m 399.0403,50.760002 -2.81,8.37 -2.79,-1 -5.69,-7.65 7.19,-5.55 3.66,5.16 z"
     id="path42" />
  <polygon
     class="cls-9"
     points="392.48,209.97 392.48,209.64 401.7,208.92 401.7,213.47 "
     id="polygon44"
     transform="translate(-21.569701,-183.52)" />
  <polygon
     class="cls-9"
     points="407.06,215.5 413.97,207.98 423.19,207.27 423.48,210.17 415.74,218.78 "
     id="polygon46"
     transform="translate(-21.569701,-183.52)" />
  <path
     class="cls-14"
     d="m 394.9303,44.970002 -7.18,5.51 -3.18,-4.28 a 0.41,0.41 0 0 0 -0.63,0 l -3.33,3.71 -9.71,-22 v -1.43 l 9.23,3.49 v 6.8 a 0.4,0.4 0 0 0 0.7,0.28 l 4.65,-5 8.69,3.29 -3.23,3.58 a 0.4,0.4 0 0 0 0,0.5 z"
     id="path48" />
  <polygon
     class="cls-15"
     points="415,241.7 417.8,242.65 417.09,244.49 "
     id="polygon50"
     transform="translate(-21.569701,-183.52)" />
  <path
     class="cls-16"
     d="m 380.6203,49.910002 -0.38,0.43 a 0.4,0.4 0 0 0 -0.1,0.27 v 1.75 l -9.23,-7.88 v -16.61 z"
     id="path52" />
  <path
     class="cls-10"
     d="m 367.6603,61.600002 a 0.41,0.41 0 0 1 -0.37,0.57 h -1.35 l 1.64,-0.76 z"
     id="path54" />
  <path
     class="cls-10"
     d="m 380.1403,55.620002 v 6.14 a 0.41,0.41 0 0 1 -0.41,0.41 h -8.42 a 0.41,0.41 0 0 1 -0.41,-0.41 v -1.88 z"
     id="path56" />
  <path
     class="cls-9"
     d="m 367.5803,61.410002 -1.64,0.76 h -7.59 a 0.4,0.4 0 0 1 -0.37,-0.25 l -0.18,-0.4 v 0 l 3.88,-13.76 z"
     id="path58" />
  <polygon
     class="cls-9"
     points="392.48,243.4 392.48,228.04 401.7,235.88 401.7,239.14 "
     id="polygon60"
     transform="translate(-21.569701,-183.52)" />
  <path
     class="cls-17"
     d="m 361.6803,47.760002 -3.88,13.72 -3.46,-8 a 0.4,0.4 0 0 0 -0.37,-0.25 h -16.8 a 0.41,0.41 0 0 0 -0.38,0.25 l -0.52,1.2 -7.84,-4.63 0.18,-0.41 14.87,-4.52 h 6.62 a 0.4,0.4 0 0 0 0.37,-0.56 l -0.59,-1.38 8.65,-2.63 z"
     id="path62" />
  <path
     class="cls-18"
     d="m 343.5103,45.120002 -14.87,4.52 0.08,-0.2 13,-7.36 -1.07,2.48 a 0.4,0.4 0 0 0 0.37,0.56 h 2.5 z"
     id="path64" />
  <polygon
     class="cls-18"
     points="369.5,222.07 377.35,217.62 380.13,224.06 371.48,226.7 "
     id="polygon66"
     transform="translate(-21.569701,-183.52)" />
  <path
     class="cls-12"
     d="m 336.2803,54.680002 -3.12,7.25 v 0 l -4.84,-11.53 v 0 l 0.15,-0.34 z"
     id="path68" />
  <path
     class="cls-19"
     d="m 355.7803,34.100002 -7.85,4.45 -2,-4.57 a 0.41,0.41 0 0 0 -0.75,0 l -3.51,8.11 -13,7.36 1.4,-3.25 v 0 0 l 14.36,-25.33 h 5.25 a 0.4,0.4 0 0 1 0.37,0.25 z"
     id="path70" />
  <path
     class="cls-20"
     d="m 323.6903,32.480002 a 20.46,20.46 0 0 1 1.63,6.44 z"
     id="path72" />
  <path
     class="cls-20"
     d="m 344.5103,20.810002 -14.36,25.33 10.84,-25.09 a 0.41,0.41 0 0 1 0.37,-0.25 h 3.15 z"
     id="path74" />
  <path
     class="cls-21"
     d="m 325.4303,41.220002 a 21.76,21.76 0 0 1 -1.43,8 l -9.52,-1.4 a 13.84,13.84 0 0 0 1.55,-6.57 13.54,13.54 0 0 0 -3.18,-9 l 3.72,-8.44 a 21.47,21.47 0 0 1 2.6,2.19 20.37,20.37 0 0 1 4.54,6.5 l 1.63,6.44 v 0 c 0.09,0.74 0.09,1.54 0.09,2.28 z"
     id="path76" />
  <path
     class="cls-22"
     d="m 314.8503,53.170002 8.32,-2.1 a 20.76,20.76 0 0 1 -4,5.37 z"
     id="path78" />
  <path
     class="cls-22"
     d="m 333.1503,61.940002 a 0.41,0.41 0 0 1 -0.36,0.23 h -6 l -2.65,-2 4.22,-9.76 z"
     id="path80" />
  <path
     class="cls-18"
     d="m 314.8503,53.170002 4.33,3.27 v 0 a 22.08,22.08 0 0 1 -2.26,1.94 z"
     id="path82" />
  <path
     class="cls-18"
     d="m 326.7503,62.170002 h -2.9 a 0.41,0.41 0 0 1 -0.37,-0.57 l 0.62,-1.44 z"
     id="path84" />
  <path
     class="cls-20"
     d="m 323.9903,49.220002 a 17.7,17.7 0 0 1 -0.83,1.84 l -8.32,2.1 -2.74,-2.13 0.36,-0.38 a 13.42,13.42 0 0 0 2,-2.83 z"
     id="path86" />
  <path
     class="cls-22"
     d="m 316.8903,58.400002 a 21,21 0 0 1 -11.68,4.14 l 9.63,-9.37 z"
     id="path88" />
  <path
     class="cls-23"
     d="m 316.5503,23.800002 -3.72,8.44 a 5.22,5.22 0 0 0 -0.36,-0.43 11.34,11.34 0 0 0 -8.73,-3.9 12.49,12.49 0 0 0 -2.67,0.28 l -2.29,-7.85 a 23.77,23.77 0 0 1 4.92,-0.49 21.44,21.44 0 0 1 12.85,3.95 z"
     id="path90" />
  <path
     class="cls-24"
     d="m 314.8503,53.170002 -9.63,9.37 c -0.5,0 -1,0 -1.51,0 a 21.6,21.6 0 0 1 -12.1,-3.42 l 1.08,-5.8 h 5.73 a 12.09,12.09 0 0 0 10.81,-0.09 z"
     id="path92" />
  <path
     class="cls-25"
     d="m 301.0703,28.190002 a 11.4,11.4 0 0 0 -6.06,3.62 13.44,13.44 0 0 0 -3.55,9.12 l -9.17,-3.5 -0.21,-0.08 0.3,-0.45 9.05,-13.42 a 20.33,20.33 0 0 1 7.39,-3.09 v 0 z"
     id="path94" />
  <path
     class="cls-26"
     d="m 296.0903,51.700002 a 11.35,11.35 0 0 0 2.33,1.6 h -5.73 z"
     id="path96" />
  <path
     class="cls-26"
     d="m 314.8503,53.170002 h -5.62 a 11.76,11.76 0 0 0 2.87,-2.18 z"
     id="path98" />
  <path
     class="cls-27"
     d="m 296.0903,51.700002 -3.4,1.65 -10.43,-15.73 v 0 l -0.19,-0.28 0.21,0.08 9.17,3.5 c 0,0.11 0,0.21 0,0.32 a 13.41,13.41 0 0 0 3.56,9.41 11.78,11.78 0 0 0 1.08,1.05 z"
     id="path100" />
  <path
     class="cls-28"
     d="m 291.4303,23.480002 -9,13.45 a 20.05,20.05 0 0 1 5.89,-10.91 22,22 0 0 1 3.11,-2.54 z"
     id="path102" />
  <path
     class="cls-26"
     d="m 266.1203,62.170002 15.79,-5.24 v 4.83 a 0.41,0.41 0 0 1 -0.41,0.41 z"
     id="path104" />
  <path
     class="cls-26"
     d="m 292.6903,53.360002 -1.08,5.8 a 22,22 0 0 1 -3.34,-2.7 c -0.41,-0.41 -0.81,-0.82 -1.18,-1.24 z"
     id="path106" />
  <path
     class="cls-23"
     d="m 281.9103,54.350002 v 2.59 l -15.79,5.24 h -8.55 l 8.13,-8.23 h 15.81 a 0.41,0.41 0 0 1 0.4,0.4 z"
     id="path108" />
  <path
     class="cls-23"
     d="m 292.6903,53.360002 -5.6,1.86 a 20.43,20.43 0 0 1 -5.1,-14 23.47,23.47 0 0 1 0.27,-3.6 z"
     id="path110" />
  <path
     class="cls-29"
     d="m 265.6903,53.940002 -8.13,8.23 h -2.13 a 0.41,0.41 0 0 1 -0.41,-0.41 v 0 l 9.23,-26.08 v 17.89 a 0.4,0.4 0 0 0 0.41,0.4 h 1 z"
     id="path112" />
  <path
     class="cls-30"
     d="m 264.2803,21.210002 v 2.27 l -0.23,-2.67 a 0.4,0.4 0 0 1 0.23,0.4 z"
     id="path114" />
  <path
     class="cls-31"
     d="m 250.5103,27.330002 a 0.42,0.42 0 0 1 0,0.55 l -5.19,5.89 a 0.4,0.4 0 0 1 -0.61,0 13.78,13.78 0 0 0 -7,-4.61 l -2,-9.21 a 21.73,21.73 0 0 1 14.8,7.38 z"
     id="path116" />
  <path
     class="cls-31"
     d="m 259.2103,20.810002 -4.16,4.23 v -3.82 a 0.4,0.4 0 0 1 0.41,-0.41 z"
     id="path118" />
  <path
     class="cls-32"
     d="m 264.2803,23.480002 v 10 l -9.23,2.55 v -11 l 4.16,-4.23 h 4.66 a 0.35,0.35 0 0 1 0.17,0 z"
     id="path120" />
  <path
     class="cls-33"
     d="m 250.2503,54.480002 a 0.41,0.41 0 0 1 0,0.56 c -0.56,0.62 -1.14,1.2 -1.73,1.74 l -4,-7.92 a 0.39,0.39 0 0 1 0.36,0.12 z"
     id="path122" />
  <polygon
     class="cls-33"
     points="276.62,245.25 276.62,219.55 285.85,217 285.85,219.17 "
     id="polygon124"
     transform="translate(-21.569701,-183.52)" />
  <path
     class="cls-28"
     d="m 248.5403,56.740002 a 21.44,21.44 0 0 1 -9.63,5.32 l 0.54,-9.3 a 14.11,14.11 0 0 0 4.86,-3.79 0.44,0.44 0 0 1 0.24,-0.14 z"
     id="path126" />
  <path
     class="cls-34"
     d="m 239.4303,52.760002 -0.54,9.3 c -0.63,0.15 -1.26,0.28 -1.9,0.36 v 0 l -12.67,-1.66 v 0 q -0.43,-0.19 -0.85,-0.39 l 5.85,-7.07 a 12.05,12.05 0 0 0 4.18,0.71 14.09,14.09 0 0 0 5.93,-1.25 z"
     id="path128" />
  <path
     class="cls-35"
     d="m 229.2903,53.290002 -5.86,7.07 c -0.39,-0.19 -0.76,-0.4 -1.13,-0.61 v 0 l -6.87,-6.42 v 0 a 19.26,19.26 0 0 1 -2.08,-4.05 l 9,-3 a 11.29,11.29 0 0 0 2.7,4.3 11.73,11.73 0 0 0 4.24,2.71 z"
     id="path130" />
  <polygon
     class="cls-36"
     points="232.93,209.51 231.03,208.57 233.97,207.68 "
     id="polygon132"
     transform="translate(-21.569701,-183.52)" />
  <path
     class="cls-36"
     d="m 237.7703,29.150002 a 13.67,13.67 0 0 0 -3.64,-0.47 12.68,12.68 0 0 0 -8.91,3.4 l -0.49,0.47 -8.52,-4.18 v 0 a 22.18,22.18 0 0 1 2.08,-2.35 21.24,21.24 0 0 1 15.42,-6.15 c 0.69,0 1.36,0 2,0.08 z"
     id="path134" />
  <polygon
     class="cls-37"
     points="231.35,212.25 231.03,208.57 232.93,209.51 "
     id="polygon136"
     transform="translate(-21.569701,-183.52)" />
  <path
     class="cls-37"
     d="m 221.5203,41.250002 a 14.68,14.68 0 0 0 0.79,5 l -9,3 a 22.27,22.27 0 0 1 -1.35,-7.89 20.67,20.67 0 0 1 4.22,-13 l 8.52,4.18 a 12,12 0 0 0 -3.18,8.71 z"
     id="path138" />
  <path
     class="cls-38"
     d="M 224.3103,60.750002 Z"
     id="path140" />
  <path
     class="cls-38"
     d="m 236.9903,62.420002 a 21.39,21.39 0 0 1 -3.07,0.22 23.61,23.61 0 0 1 -9.6,-1.88 z"
     id="path142" />
  <path
     class="cls-39"
     d="m 213.9703,21.410002 -1.54,2.74 -3,0.9 -1.49,-4.24 h 5.65 a 0.4,0.4 0 0 1 0.38,0.6 z"
     id="path144" />
  <polygon
     class="cls-40"
     points="219.48,240.42 221.57,240.73 221.57,241.81 "
     id="polygon146"
     transform="translate(-21.569701,-183.52)" />
  <path
     class="cls-34"
     d="m 200.0003,58.290002 v 3.48 a 0.41,0.41 0 0 1 -0.41,0.41 h -2 l 0.28,-5.27 z"
     id="path148" />
  <polygon
     class="cls-41"
     points="221.57,240.73 219.48,240.42 221.57,239.34 "
     id="polygon150"
     transform="translate(-21.569701,-183.52)" />
  <path
     class="cls-41"
     d="m 222.3103,59.750002 a 20.93,20.93 0 0 1 -4.13,-3.14 20.42,20.42 0 0 1 -2.74,-3.28 z"
     id="path152" />
  <polygon
     class="cls-42"
     points="216.13,219.75 216.78,219.26 217.11,219.01 217.55,218.69 217.55,218.68 217.55,218.67 231.03,208.57 231.35,212.25 223.65,225.71 "
     id="polygon154"
     transform="translate(-21.569701,-183.52)" />
  <path
     class="cls-43"
     d="m 202.0803,42.190002 -2,3.55 a 0.41,0.41 0 0 0 -0.06,0.2 v 9.88 l -2.09,1.07 -3.35,-20.67 z"
     id="path156" />
  <path
     class="cls-44"
     d="m 195.0303,35.590002 a 0.42,0.42 0 0 0 0.17,0.16 l -0.65,0.48 0.34,-0.87 z"
     id="path158" />
  <path
     class="cls-44"
     d="m 209.4303,25.050002 -13.47,10.1 8.22,-14.15 a 0.41,0.41 0 0 1 0.35,-0.2 h 3.42 z"
     id="path160" />
  <polygon
     class="cls-45"
     points="212.81,245.69 219.48,240.42 219.2,245.69 "
     id="polygon162"
     transform="translate(-21.569701,-183.52)" />
  <path
     class="cls-46"
     d="m 173.3203,21.210002 v 2.82 l -5.62,-3.23 h 5.21 a 0.41,0.41 0 0 1 0.41,0.41 z"
     id="path164" />
  <path
     class="cls-46"
     d="m 194.6903,35.000002 -0.13,1.22 -13.83,-7.94 -3.93,-6.88 a 0.41,0.41 0 0 1 0.35,-0.61 h 9.07 a 0.41,0.41 0 0 1 0.35,0.2 z"
     id="path166" />
  <polygon
     class="cls-47"
     points="216.26,218.52 216.47,218.87 216.13,219.75 "
     id="polygon168"
     transform="translate(-21.569701,-183.52)" />
  <path
     class="cls-37"
     d="m 197.9103,56.900002 -6.67,5.27 h -0.06 a 0.41,0.41 0 0 1 -0.41,-0.41 v -3.14 z"
     id="path170" />
  <path
     class="cls-48"
     d="m 190.7703,53.160002 v -7.21 a 0.41,0.41 0 0 0 -0.06,-0.2 l -2.87,-5 6.71,-4.5 3.35,20.67 z"
     id="path172" />
  <path
     class="cls-42"
     d="m 171.6703,62.170002 2.3,-5 v 4.57 a 0.41,0.41 0 0 1 -0.41,0.41 h -1.89 z"
     id="path174" />
  <polygon
     class="cls-42"
     points="212.34,236.68 219.48,240.42 212.34,242.15 "
     id="polygon176"
     transform="translate(-21.569701,-183.52)" />
  <path
     class="cls-49"
     d="m 173.3203,24.030002 v 4.59 a 0.41,0.41 0 0 1 -0.41,0.41 h -3.9 l -4.48,-8.22 h 3.17 z"
     id="path178" />
  <polygon
     class="cls-49"
     points="202.3,211.81 216.13,219.75 209.42,224.25 "
     id="polygon180"
     transform="translate(-21.569701,-183.52)" />
  <polygon
     class="cls-50"
     points="180.37,204.66 180.85,204.33 186.1,204.33 190.58,212.55 186.49,212.55 "
     id="polygon182"
     transform="translate(-21.569701,-183.52)" />
  <path
     class="cls-51"
     d="m 173.9603,54.410002 v 2.79 l -2.3,5 h -3.15 l -24.08,-11.64 8.26,-0.89 v 3.93 a 0.41,0.41 0 0 0 0.41,0.41 h 20.43 a 0.41,0.41 0 0 1 0.43,0.4 z"
     id="path184" />
  <polygon
     class="cls-52"
     points="180.37,204.66 186.49,212.55 176.53,212.55 "
     id="polygon186"
     transform="translate(-21.569701,-183.52)" />
  <path
     class="cls-52"
     d="m 171.2503,37.960002 v 7.06 a 0.41,0.41 0 0 1 -0.41,0.41 h -17.71 a 0.41,0.41 0 0 0 -0.41,0.41 v 3.84 l -8.26,0.89 8.26,-16.94 v 3.53 a 0.41,0.41 0 0 0 0.41,0.41 h 17.71 a 0.41,0.41 0 0 1 0.41,0.39 z"
     id="path188" />
  <polygon
     class="cls-53"
     points="166.03,234.08 190.09,245.69 169.69,245.69 "
     id="polygon190"
     transform="translate(-21.569701,-183.52)" />
  <path
     class="cls-54"
     d="m 158.8003,21.140002 -3.84,7.89 h -1.83 a 0.41,0.41 0 0 0 -0.41,0.41 v 4.18 l -8.29,16.94 -1,-1.59 v -20.68 z"
     id="path192" />
  <path
     class="cls-55"
     d="m 138.9403,21.480002 -6,6.66 -1.11,-7.33 h 6.79 a 0.4,0.4 0 0 1 0.32,0.67 z"
     id="path194" />
  <path
     class="cls-55"
     d="m 158.8003,21.140002 -15.31,7.14 v -7.08 a 0.4,0.4 0 0 1 0.41,-0.41 h 12.74 z"
     id="path196" />
  <path
     class="cls-56"
     d="m 134.9003,55.650002 3.84,5.38 -9.31,-2.46 z"
     id="path198" />
  <path
     class="cls-56"
     d="m 148.1203,62.170002 h -4.22 a 0.41,0.41 0 0 1 -0.41,-0.41 v -10.68 l 1,-0.52 z"
     id="path200" />
  <path
     class="cls-53"
     d="m 138.7603,62.170002 h -8.33 l -1.08,-3.6 9.35,2.45 0.36,0.5 a 0.41,0.41 0 0 1 -0.3,0.65 z"
     id="path202" />
  <path
     class="cls-57"
     d="m 130.9703,50.130002 3.93,5.52 -5.47,2.92 1.44,-8.65 z"
     id="path204" />
  <polygon
     class="cls-57"
     points="165.06,232.5 166.03,234.08 165.06,234.6 "
     id="polygon206"
     transform="translate(-21.569701,-183.52)" />
  <path
     class="cls-58"
     d="m 130.8303,49.920002 -1.4,8.65 -6.6,-4.48 -5.84,-7.85 a 0.41,0.41 0 0 0 -0.63,0 l -2,2.17 -10.49,-7.12 23.13,-6.5 -3.69,4.09 a 0.4,0.4 0 0 0 0,0.5 q 2.12,2.97 7.52,10.54 z"
     id="path208" />
  <path
     class="cls-47"
     d="m 130.4303,62.170002 h -1.48 a 0.4,0.4 0 0 1 -0.32,-0.17 l -1.68,-2.27 2.41,-1.16 z"
     id="path210" />
  <polygon
     class="cls-59"
     points="134.08,207.66 129.54,205.78 134.08,204.73 "
     id="polygon212"
     transform="translate(-21.569701,-183.52)" />
  <path
     class="cls-59"
     d="m 132.9503,28.140002 -2.92,3.24 -8.43,-3.48 6.4,-7 a 0.41,0.41 0 0 1 0.3,-0.13 h 3.54 z"
     id="path214" />
  <path
     class="cls-60"
     d="m 130.0403,31.380002 -3,3.37 v 0 l -23.13,6.5 4.1,-19 4.54,1.88 v 12.61 a 0.4,0.4 0 0 0 0.7,0.28 l 8.4,-9.13 z"
     id="path216" />
  <path
     class="cls-61"
     d="m 103.8703,41.250002 10.49,7.12 -1.75,2 a 0.4,0.4 0 0 0 -0.1,0.27 v 11.16 a 0.41,0.41 0 0 1 -0.41,0.41 h -0.12 z"
     id="path218" />
  <polygon
     class="cls-61"
     points="144.35,237.61 150.95,242.09 148.55,243.26 "
     id="polygon220"
     transform="translate(-21.569701,-183.52)" />
  <polygon
     class="cls-62"
     points="120.89,235.26 112.41,226.64 120.89,225.43 "
     id="polygon222"
     transform="translate(-21.569701,-183.52)" />
  <polygon
     class="cls-62"
     points="124.85,239.28 124.85,224.85 125.44,224.77 133.56,245.69 131.16,245.69 "
     id="polygon224"
     transform="translate(-21.569701,-183.52)" />
  <path
     class="cls-61"
     d="m 90.840299,43.120002 8.48,8.62 v 9.61 a 0.85,0.85 0 0 1 -0.85,0.85 h -9.87 z"
     id="path226" />
  <path
     class="cls-61"
     d="m 109.5903,62.170002 h -5.9 a 0.41,0.41 0 0 1 -0.41,-0.41 v -6 z"
     id="path228" />
  <polygon
     class="cls-63"
     points="98.31,245.72 94.72,237.06 112.41,226.64 110.17,245.72 "
     id="polygon230"
     transform="translate(-21.569701,-183.52)" />
  <polygon
     class="cls-64"
     points="120.89,225.43 112.41,226.64 120.89,216.31 "
     id="polygon232"
     transform="translate(-21.569701,-183.52)" />
  <polygon
     class="cls-64"
     points="124.85,224.85 124.85,211.49 129.54,205.78 125.44,224.77 "
     id="polygon234"
     transform="translate(-21.569701,-183.52)" />
  <path
     class="cls-65"
     d="m 99.320299,21.620002 v 11.17 l -8.48,10.32 -6.41,-22.35 h 14 a 0.86,0.86 0 0 1 0.89,0.86 z"
     id="path236" />
  <polygon
     class="cls-65"
     points="124.85,204.78 129.54,205.78 124.85,211.49 "
     id="polygon238"
     transform="translate(-21.569701,-183.52)" />
  <polygon
     class="cls-58"
     points="90.43,243.39 94.72,237.06 98.31,245.72 92.05,245.72 "
     id="polygon240"
     transform="translate(-21.569701,-183.52)" />
  <polygon
     class="cls-66"
     points="101.28,204.28 106.01,204.28 112.41,226.64 88.94,216.71 "
     id="polygon242"
     transform="translate(-21.569701,-183.52)" />
  <path
     class="cls-67"
     d="m 67.370299,33.190002 5.78,20.35 17.69,-10.43 z"
     id="path244" />
  <polygon
     class="cls-50"
     points="90.43,243.39 92.05,245.72 90.36,245.72 "
     id="polygon246"
     transform="translate(-21.569701,-183.52)" />
  <polygon
     class="cls-68"
     points="86.71,205.59 91.48,204.28 101.28,204.28 88.94,216.71 "
     id="polygon248"
     transform="translate(-21.569701,-183.52)" />
  <path
     class="cls-69"
     d="m 67.370299,33.190002 -28.49,6.57 30,20.11 z"
     id="path250" />
  <path
     class="cls-67"
     d="m 67.370299,33.190002 1.49,26.68 4.28,-6.33 z"
     id="path252" />
  <path
     class="cls-68"
     d="m 65.140299,22.070002 -26.26,17.69 28.49,-6.57 z"
     id="path254" />
  <polygon
     class="cls-70"
     points="41.07,245.72 35.87,222.91 60.45,223.28 48.1,245.72 "
     id="polygon256"
     transform="translate(-21.569701,-183.52)" />
  <path
     class="cls-71"
     d="m 26.230299,20.760002 -11.93,18.63 -3,-17.51 0.43,-0.74 c 0,0 0,0 0,0 a 0.78,0.78 0 0 1 0.66,-0.37 h 13.84 z"
     id="path258" />
  <path
     class="cls-70"
     d="m 19.500299,62.200002 h -7.14 a 0.77,0.77 0 0 1 -0.67,-0.39 l -10.2600004,-17.75 12.8700004,-4.67 z"
     id="path260" />
  <polygon
     class="cls-72"
     points="32.83,205.4 35.87,222.91 27.56,214.53 "
     id="polygon262"
     transform="translate(-21.569701,-183.52)" />
  <polygon
     class="cls-73"
     points="52.67,204.28 60.45,223.28 86.71,205.59 78.8,204.28 73.47,204.28 65.25,204.28 "
     id="polygon264"
     transform="translate(-21.569701,-183.52)" />
  <polygon
     class="cls-73"
     points="35.87,222.91 60.45,223.28 52.67,204.28 49.42,204.28 47.8,204.28 "
     id="polygon266"
     transform="translate(-21.569701,-183.52)" />
  <polygon
     class="cls-74"
     points="90.36,245.72 90.43,243.39 84.72,245.72 89.3,245.72 "
     id="polygon268"
     transform="translate(-21.569701,-183.52)" />
  <polygon
     class="cls-67"
     points="65.85,245.72 73.47,245.72 84.72,245.72 90.43,243.39 60.45,223.28 "
     id="polygon270"
     transform="translate(-21.569701,-183.52)" />
  <polygon
     class="cls-75"
     points="65.25,245.72 65.85,245.72 60.45,223.28 48.1,245.72 49.42,245.72 "
     id="polygon272"
     transform="translate(-21.569701,-183.52)" />
  <polygon
     class="cls-62"
     points="180.14,204.33 180.85,204.33 180.37,204.66 "
     id="polygon274"
     transform="translate(-21.569701,-183.52)" />
  <polygon
     class="cls-76"
     points="180.14,204.33 180.37,204.66 178.21,204.33 "
     id="polygon276"
     transform="translate(-21.569701,-183.52)" />
  <path
     class="cls-75"
     d="m 112.5103,21.210002 -4.54,1.05 1.24,-1.45 h 2.89 a 0.4,0.4 0 0 1 0.41,0.4 z"
     id="path278" />
  <polygon
     class="cls-77"
     points="129.28,204.33 130.78,204.33 129.54,205.78 "
     id="polygon280"
     transform="translate(-21.569701,-183.52)" />
  <path
     class="cls-68"
     d="m 107.9703,22.260002 -4.69,-1 v 0 a 0.4,0.4 0 0 1 0.41,-0.41 h 4 z"
     id="path282" />
  <polygon
     class="cls-78"
     points="91.48,204.28 89.3,204.28 86.79,204.28 86.71,205.59 "
     id="polygon284"
     transform="translate(-21.569701,-183.52)" />
  <polygon
     class="cls-79"
     points="85.98,204.28 78.8,204.28 86.71,205.59 "
     id="polygon286"
     transform="translate(-21.569701,-183.52)" />
  <polygon
     class="cls-71"
     points="86.79,204.28 85.98,204.28 86.71,205.59 "
     id="polygon288"
     transform="translate(-21.569701,-183.52)" />
  <path
     class="cls-80"
     d="m 43.600299,21.120002 -11.58,20.05 a 0.67,0.67 0 0 0 -0.08,0.33 h -8.08 l 15.89,-27.53 a 0.63,0.63 0 0 1 0.24,0.23 v 0 l 3.6,6.26 a 0.69,0.69 0 0 1 0.01,0.66 z"
     id="path290" />
  <path
     class="cls-81"
     d="m 43.590299,62.580002 -3.6,6.23 a 0.7,0.7 0 0 1 -0.24,0.23 l -15.9,-27.56 h 8.08 a 0.62,0.62 0 0 0 0.08,0.31 l 11.56,20 a 0.68,0.68 0 0 1 0.02,0.79 z"
     id="path292" />
  <path
     class="cls-82"
     d="m 39.750299,13.970002 -15.89,27.51 v 0 l -4,6.91 -3.8,-6.6 a 0.62,0.62 0 0 1 -0.08,-0.31 0.67,0.67 0 0 1 0.08,-0.33 l 3.86,-6.67 11.71,-20.26 a 0.68,0.68 0 0 1 0.59,-0.35 h 7.21 a 0.71,0.71 0 0 1 0.32,0.1 z"
     id="path294" />
  <path
     class="cls-80"
     d="m 39.750299,69.040002 a 0.71,0.71 0 0 1 -0.34,0.09 h -7.19 a 0.68,0.68 0 0 1 -0.59,-0.35 l -10.7,-18.53 -1.06,-1.84 4,-6.91 z"
     id="path296" />
  <path
     class="cls-82"
     d="m 71.710299,41.480002 -15.9,27.54 a 0.74,0.74 0 0 1 -0.24,-0.23 v 0 l -3.6,-6.24 a 0.69,0.69 0 0 1 0,-0.64 l 11.56,-20.06 a 0.67,0.67 0 0 0 0.1,-0.35 h 8.08 z"
     id="path298" />
  <path
     class="cls-80"
     d="m 79.570299,41.480002 a 0.67,0.67 0 0 1 -0.1,0.35 l -15.57,27 a 0.68,0.68 0 0 1 -0.58,0.32 h -7.17 a 0.74,0.74 0 0 1 -0.35,-0.09 l 15.91,-27.58 4,-6.9 3.78,6.56 a 0.67,0.67 0 0 1 0.08,0.34 z"
     id="path300" />
  <path
     class="cls-80"
     d="m 71.710299,41.480002 h -8.09 a 0.67,0.67 0 0 0 -0.1,-0.34 l -11.56,-20 a 0.68,0.68 0 0 1 0,-0.69 l 3.6,-6.24 a 0.74,0.74 0 0 1 0.24,-0.23 z"
     id="path302" />
  <path
     class="cls-81"
     d="m 75.690299,34.590002 v 0 l -4,6.9 -15.9,-27.53 a 0.74,0.74 0 0 1 0.35,-0.09 h 7.19 a 0.68,0.68 0 0 1 0.58,0.32 z"
     id="path304" />
  <metadata
     id="metadata309">
    <rdf:RDF>
      <cc:Work
         rdf:about="">
        <dc:title>keycloak_deliverables</dc:title>
      </cc:Work>
    </rdf:RDF>
  </metadata>
</svg>
